<?xml version="1.0" encoding="UTF-8"?>
<svg id="Layer_1" xmlns="http://www.w3.org/2000/svg" version="1.1" viewBox="0 0 432 72">
  <!-- Generator: Adobe Illustrator 29.5.1, SVG Export Plug-In . SVG Version: 2.1.0 Build 141)  -->
  <defs>
    <style>
      .st0 {
        fill: #fff;
      }
    </style>
  </defs>
  <path class="st0" d="M302.14,24.5h-3.43v9.71h3.43c3.8,0,5.7-1.62,5.7-4.85s-1.9-4.85-5.7-4.85ZM331.85,40.79h9.3l-4.65-12.96-4.65,12.96ZM102.04,40.79h9.3l-4.65-12.96-4.65,12.96ZM54.15,11.74v48.08h371.36V11.74H54.15ZM81.34,24.89h-12.31v6.5h11.62v8.57h-11.62v6.71h12.31v8.57h-22.66V16.32h22.66v8.57ZM116.46,55.24l-2.38-6.76h-14.79l-2.38,6.76h-11.04l15.16-38.92h11.3l15.16,38.92h-11.04ZM154.81,55.24h-22.77V16.32h10.35v30.35h12.41v8.57ZM169.71,55.24h-10.35V16.32h10.35v38.92ZM214.02,55.26h-10.3l-19.12-23.8v23.8h-10.35V16.34h10.35l19.12,23.8v-23.8h10.3v38.92ZM260.04,39.1c-.18,1.69-.53,3.25-1.06,4.7-.74,2.03-1.74,3.83-3.01,5.4-1.27,1.57-2.75,2.87-4.46,3.92-1.71,1.05-3.58,1.85-5.62,2.4-2.04.55-4.19.83-6.45.83-3.1,0-5.92-.5-8.48-1.5-2.55-1-4.75-2.4-6.58-4.21-1.83-1.81-3.26-3.97-4.28-6.5-1.02-2.53-1.53-5.32-1.53-8.39s.5-5.81,1.51-8.34c1-2.53,2.43-4.69,4.28-6.48,1.85-1.79,4.08-3.18,6.68-4.18,2.61-1,5.51-1.5,8.71-1.5,4.16,0,7.8.88,10.94,2.63,3.13,1.75,5.62,4.47,7.45,8.16l-9.82,3.97c-.92-2.13-2.1-3.67-3.57-4.59-1.46-.93-3.12-1.39-4.99-1.39-1.55,0-2.96.28-4.22.85-1.27.57-2.35,1.38-3.25,2.43-.9,1.05-1.6,2.32-2.11,3.79-.51,1.48-.76,3.13-.76,4.96,0,1.65.22,3.18.66,4.59.44,1.41,1.1,2.63,1.98,3.67.88,1.03,1.97,1.83,3.27,2.4,1.3.57,2.82.85,4.54.85,1.02,0,2.01-.11,2.96-.34.95-.22,1.8-.58,2.56-1.08.76-.5,1.38-1.14,1.87-1.94.49-.79.83-1.75,1-2.89h-8.51v-7.85h20.55c0,2.06-.09,3.94-.26,5.63ZM304.83,42.36h-6.13v12.91h-10.35V16.35h16.48c4.47,0,7.9,1.14,10.27,3.41,2.38,2.27,3.57,5.47,3.57,9.6s-1.19,7.33-3.57,9.6c-2.38,2.27-5.8,3.41-10.27,3.41ZM346.27,55.24l-2.38-6.76h-14.79l-2.38,6.76h-11.04l15.16-38.92h11.3l15.16,38.92h-11.04ZM380.74,24.89h-8.5v30.35h-10.35v-30.35h-8.5v-8.57h27.36v8.57ZM420.94,55.24h-10.35v-16.05h-14.95v16.05h-10.35V16.32h10.35v15.02h14.95v-15.02h10.35v38.92Z"/>
  <path class="st0" d="M18.35,30.29h18.46V11.74h12.79v48.08h-12.79v-19.83h-18.46v19.83H5.56V11.74h12.79v18.56Z"/>
</svg>